<?xml version="1.0" encoding="utf-8"?>
<!-- Generator: Adobe Illustrator 25.4.1, SVG Export Plug-In . SVG Version: 6.00 Build 0)  -->
<svg version="1.1" id="Layer_1" xmlns="http://www.w3.org/2000/svg" xmlns:xlink="http://www.w3.org/1999/xlink" x="0px" y="0px"
	 viewBox="0 0 1600 900" style="enable-background:new 0 0 1600 900;" xml:space="preserve">
<style type="text/css">
	.st0{display:none;}
	.st1{display:inline;opacity:0.4985;}
	.st2{fill:none;stroke:#FFFFFF;stroke-width:4;stroke-dasharray:15,10;}
	.st3{opacity:0.6;}
	.st4{fill:#CCCCCC;}
</style>
<g id="Layer_1_00000118373209761207041020000000377904753077727149_" class="st0">
	<g class="st1">
		<path d="M0,0h1600v900H0V0z M799.5,795c165.4,0,299.5-154.5,299.5-345S964.9,105,799.5,105S500,259.5,500,450S634.1,795,799.5,795
			z"/>
		<path class="st2" d="M799.5,795c165.4,0,299.5-154.5,299.5-345S964.9,105,799.5,105S500,259.5,500,450S634.1,795,799.5,795z"/>
	</g>
	<g class="st1">
		<path d="M0-940.3h1600v900H0V-940.3z M799.5-145.3c165.4,0,299.5-154.5,299.5-345s-134.1-345-299.5-345S500-680.8,500-490.3
			S634.1-145.3,799.5-145.3z"/>
		<path class="st2" d="M799.5-145.3c165.4,0,299.5-154.5,299.5-345s-134.1-345-299.5-345S500-680.8,500-490.3
			S634.1-145.3,799.5-145.3z"/>
	</g>
</g>
<path class="st3" d="M0,0.4V900h1600V0.4H0z M800,800.4c-168.1,0-304.3-156.9-304.3-350.4S631.9,99.6,800,99.6
	s304.3,156.9,304.3,350.4S968.1,800.4,800,800.4z"/>
<g>
	<g>
		<polygon class="st4" points="1101.3,464.2 1106.6,464.4 1106.9,450.2 1101.6,450.2 		"/>
		<polygon class="st4" points="1100.1,485 1105.4,485.5 1106.3,471.3 1101,471.1 		"/>
		<path class="st4" d="M1097.7,505.8l5.3,0.7c0.4-2.3,0.6-4.7,0.9-7l0.8-7.1l-5.3-0.5l-0.8,7
			C1098.3,501.2,1098.1,503.5,1097.7,505.8z"/>
		<path class="st4" d="M1094.2,526.4l5.2,1c0.4-2.3,1-4.6,1.4-7l1.1-7l-5.3-0.8l-1.1,6.9C1095.2,521.8,1094.7,524.1,1094.2,526.4z"
			/>
		<path class="st4" d="M1089.7,546.7l5.2,1.3l1.7-6.9c0.3-1.2,0.6-2.3,0.8-3.5l0.7-3.5l-5.2-1.1l-0.7,3.4c-0.2,1.1-0.5,2.3-0.8,3.4
			L1089.7,546.7z"/>
		<polygon class="st4" points="1084.1,566.8 1089.2,568.4 1093.2,554.8 1088.1,553.4 		"/>
		<path class="st4" d="M1077.4,586.6l5,1.9c1.6-4.4,3.1-8.9,4.6-13.4l-5.1-1.7C1080.5,577.8,1079,582.2,1077.4,586.6z"/>
	</g>
	<g>
		<polygon class="st4" points="1069.6,605.9 1074.5,608 1075.9,604.8 1076.7,603.2 1077.3,601.5 1079.9,594.9 1074.9,593 
			1072.4,599.5 1071.7,601.1 1071,602.7 		"/>
		<path class="st4" d="M1060.7,624.8l4.8,2.4c2.1-4.3,4.3-8.4,6.2-12.8l-4.8-2.2C1065,616.5,1062.8,620.6,1060.7,624.8z"/>
		<polygon class="st4" points="1050.9,643.2 1055.5,645.8 1062.4,633.4 1057.7,630.9 		"/>
		<path class="st4" d="M1039.8,660.9l4.4,2.9c0.7-1,1.4-1.9,2-2.9l1.9-3l3.7-6l-4.6-2.8l-3.7,6l-1.8,3
			C1041.2,658.9,1040.5,659.9,1039.8,660.9z"/>
		<path class="st4" d="M1027.8,677.9l4.3,3.2l4.3-5.7c1.4-1.9,2.7-3.9,4-5.8l-4.4-3c-1.3,1.9-2.6,3.9-4,5.8L1027.8,677.9z"/>
		<path class="st4" d="M1014.8,694.2l4.1,3.5c3-3.7,6.1-7.3,9-11l-4.2-3.3C1020.8,687,1017.7,690.5,1014.8,694.2z"/>
		<path class="st4" d="M1000.8,709.5l3.8,3.7c1.7-1.6,3.3-3.4,4.9-5.2l4.8-5.3l-4-3.5l-4.7,5.2
			C1004,706.2,1002.4,707.9,1000.8,709.5z"/>
	</g>
	<g>
		<path class="st4" d="M985.7,724l3.6,4l5.3-4.8c1.7-1.6,3.4-3.3,5.1-5l-3.7-3.8c-1.7,1.6-3.3,3.3-5,4.9L985.7,724z"/>
		<path class="st4" d="M969.9,737.5l3.3,4.2c3.7-3,7.4-6,11-9l-3.5-4C977.1,731.6,973.5,734.5,969.9,737.5z"/>
		<path class="st4" d="M953.1,749.7l3,4.4l3-2c1-0.7,1.9-1.4,2.9-2.1l5.7-4.2l-3.2-4.3l-5.6,4.2c-0.9,0.7-1.9,1.4-2.8,2.1
			L953.1,749.7z"/>
		<path class="st4" d="M935.4,760.8l2.7,4.6c4.1-2.4,8.2-4.7,12.1-7.4l-2.9-4.5C943.5,756.2,939.4,758.4,935.4,760.8z"/>
		<polygon class="st4" points="917.1,770.7 919.4,775.5 932.1,768.9 929.5,764.2 		"/>
		<path class="st4" d="M898,779l2,5c2.2-0.9,4.4-1.7,6.6-2.6l6.5-2.9l-2.2-4.8l-6.4,2.9C902.4,777.3,900.2,778.1,898,779z"/>
		<path class="st4" d="M878.4,785.9l1.6,5.1l6.8-2.2c2.2-0.8,4.5-1.4,6.7-2.3l-1.8-5c-2.1,0.9-4.4,1.5-6.6,2.3L878.4,785.9z"/>
	</g>
	<g>
		<path class="st4" d="M858.3,791.3l1.2,5.2c2.3-0.4,4.6-1.1,6.9-1.7l6.9-1.8l-1.4-5.1l-6.7,1.8
			C862.9,790.2,860.6,790.9,858.3,791.3z"/>
		<path class="st4" d="M837.9,795l0.8,5.3l7-1c1.2-0.1,2.3-0.4,3.5-0.7l3.5-0.7l-1-5.2l-3.4,0.7c-1.1,0.2-2.3,0.5-3.4,0.6L837.9,795
			z"/>
		<polygon class="st4" points="817.2,797.3 817.6,802.6 831.8,801.3 831.1,796 		"/>
		<polygon class="st4" points="796.4,797.8 796.4,803.1 799.9,803.2 803.5,803.1 810.6,802.9 810.4,797.6 803.4,797.8 799.9,797.9 
					"/>
		<polygon class="st4" points="775.7,796.6 775.2,801.9 782.3,802.6 784.1,802.7 785.8,802.8 789.4,802.9 789.6,797.6 786.1,797.5 
			784.4,797.4 782.6,797.2 		"/>
		<polygon class="st4" points="755,794 754.1,799.3 768.2,801.3 768.9,796 		"/>
		<path class="st4" d="M734.7,789.6l-1.3,5.2c4.6,1.3,9.2,2.2,13.9,3.1l1-5.2C743.8,791.7,739.2,790.9,734.7,789.6z"/>
	</g>
	<g>
		<polygon class="st4" points="714.8,783.7 713.1,788.7 719.8,791 723.2,792.1 726.7,793 728.1,787.8 724.7,787 721.4,785.9 		"/>
		<path class="st4" d="M695.3,776.3l-2.1,4.9c1.1,0.5,2.2,0.9,3.3,1.4l3.3,1.3l6.6,2.6l1.8-5l-6.5-2.5l-3.3-1.3
			C697.5,777.2,696.4,776.8,695.3,776.3z"/>
		<polygon class="st4" points="676.6,767.4 674.1,772.1 680.4,775.4 686.9,778.3 689.1,773.5 682.8,770.6 		"/>
		<path class="st4" d="M658.4,757.2l-2.8,4.5l6.1,3.6l3.1,1.8c1,0.6,2,1.2,3.1,1.7l2.6-4.7c-1-0.5-2-1.1-3-1.7l-3-1.8L658.4,757.2z"
			/>
		<polygon class="st4" points="641.1,745.7 638,750 640.9,752.1 643.8,754.1 649.8,758 652.7,753.5 646.8,749.7 643.9,747.7 		"/>
		<path class="st4" d="M624.6,732.9l-3.4,4.1c3.7,3,7.3,6.1,11.2,8.8l3.2-4.3C631.8,738.9,628.2,735.9,624.6,732.9z"/>
		<polygon class="st4" points="609,719.2 605.3,723.1 615.9,732.6 619.3,728.6 		"/>
	</g>
	<g>
		<path class="st4" d="M594.3,704.4l-3.9,3.6c3.1,3.6,6.6,6.8,9.9,10.2l3.7-3.8C600.8,711.1,597.4,707.9,594.3,704.4z"/>
		<path class="st4" d="M580.7,688.6l-4.1,3.4l4.5,5.5c0.8,0.9,1.5,1.8,2.3,2.7l2.4,2.6l4-3.5l-2.4-2.6c-0.8-0.9-1.5-1.8-2.3-2.7
			L580.7,688.6z"/>
		<polygon class="st4" points="567.9,672.2 563.6,675.3 572.1,686.6 576.3,683.3 		"/>
		<path class="st4" d="M556.3,654.9l-4.5,2.9l1.9,3c0.6,1,1.3,2,2,3l4,5.9l4.4-3l-3.9-5.8c-0.6-1-1.3-1.9-1.9-2.9L556.3,654.9z"/>
		<path class="st4" d="M545.7,636.9l-4.7,2.6c2.3,4.1,4.5,8.3,7.1,12.3l4.6-2.8C550.2,645.1,547.9,641,545.7,636.9z"/>
		<polygon class="st4" points="536.1,618.4 531.3,620.7 537.6,633.4 542.3,630.9 		"/>
		<polygon class="st4" points="527.6,599.4 522.6,601.4 523.3,603 524,604.7 525.4,607.9 528.3,614.4 533.2,612.2 530.3,605.8 
			528.9,602.6 528.2,601 		"/>
	</g>
	<g>
		<path class="st4" d="M520.2,579.8l-5,1.8c0.8,2.2,1.5,4.5,2.3,6.7l2.6,6.6l5-1.9l-2.6-6.5C521.7,584.3,521,582,520.2,579.8z"/>
		<polygon class="st4" points="513.9,560 508.7,561.4 510.7,568.3 511.8,571.7 512.9,575 518,573.4 516.8,570 515.8,566.7 		"/>
		<polygon class="st4" points="508.6,539.8 503.4,541 506.8,554.8 511.9,553.4 		"/>
		<path class="st4" d="M504.4,519.3l-5.3,0.9c0.8,4.7,1.8,9.3,2.7,13.9l5.2-1.1C506.2,528.5,505.3,523.9,504.4,519.3z"/>
		<path class="st4" d="M501.4,498.7l-5.3,0.6c0.4,4.7,1.3,9.4,2,14.1l5.3-0.8C502.7,507.9,501.8,503.3,501.4,498.7z"/>
		<path class="st4" d="M499.5,477.9l-5.3,0.4l0.5,7.1c0.2,2.4,0.5,4.7,0.7,7.1l5.3-0.5c-0.2-2.3-0.6-4.6-0.7-7L499.5,477.9z"/>
		<path class="st4" d="M498.6,457.1l-5.3,0.1l0.2,7.1l0.1,3.5c0,1.2,0.1,2.4,0.2,3.5l5.3-0.3c-0.1-1.2-0.2-2.3-0.2-3.5l-0.1-3.5
			L498.6,457.1z"/>
	</g>
	<g>
		<polygon class="st4" points="498.7,436.2 493.4,436 493.1,450.2 498.4,450.2 		"/>
		<polygon class="st4" points="499.9,415.4 494.6,414.9 493.7,429.1 499,429.3 		"/>
		<path class="st4" d="M502.3,394.6l-5.3-0.7c-0.4,2.3-0.6,4.7-0.9,7l-0.8,7.1l5.3,0.5l0.8-7C501.7,399.2,501.9,396.9,502.3,394.6z"
			/>
		<path class="st4" d="M505.8,374l-5.2-1c-0.4,2.3-1,4.6-1.4,7l-1.1,7l5.3,0.8l1.1-6.9C504.8,378.6,505.3,376.3,505.8,374z"/>
		<path class="st4" d="M510.3,353.7l-5.2-1.3l-1.7,6.9c-0.3,1.2-0.6,2.3-0.8,3.5l-0.7,3.5l5.2,1.1l0.7-3.4c0.2-1.1,0.5-2.3,0.8-3.4
			L510.3,353.7z"/>
		<polygon class="st4" points="515.9,333.6 510.8,332 506.8,345.6 511.9,347 		"/>
		<path class="st4" d="M522.6,313.8l-5-1.9c-1.6,4.4-3.1,8.9-4.6,13.4l5.1,1.7C519.5,322.6,521,318.2,522.6,313.8z"/>
	</g>
	<g>
		<polygon class="st4" points="530.4,294.5 525.5,292.4 524.1,295.6 523.3,297.2 522.7,298.9 520.1,305.5 525.1,307.4 527.6,300.9 
			528.3,299.3 529,297.7 		"/>
		<path class="st4" d="M539.3,275.6l-4.8-2.4c-2.1,4.3-4.3,8.4-6.2,12.8l4.8,2.2C535,283.9,537.2,279.8,539.3,275.6z"/>
		<polygon class="st4" points="549.1,257.2 544.5,254.6 537.6,267 542.3,269.5 		"/>
		<path class="st4" d="M560.2,239.5l-4.4-2.9c-0.7,1-1.4,1.9-2,2.9l-1.9,3l-3.7,6l4.6,2.8l3.7-6l1.8-3
			C558.8,241.5,559.5,240.5,560.2,239.5z"/>
		<path class="st4" d="M572.2,222.5l-4.3-3.2l-4.3,5.7c-1.4,1.9-2.7,3.9-4,5.8l4.4,3c1.3-1.9,2.6-3.9,4-5.8L572.2,222.5z"/>
		<path class="st4" d="M585.2,206.2l-4.1-3.5c-3,3.7-6.1,7.3-9,11l4.2,3.3C579.2,213.4,582.3,209.9,585.2,206.2z"/>
		<path class="st4" d="M599.2,190.9l-3.8-3.7c-1.7,1.6-3.3,3.4-4.9,5.2l-4.8,5.3l4,3.5l4.7-5.2C596,194.2,597.6,192.5,599.2,190.9z"
			/>
	</g>
	<g>
		<path class="st4" d="M614.3,176.4l-3.6-4l-5.3,4.8c-1.7,1.6-3.4,3.3-5.1,5l3.7,3.8c1.7-1.6,3.3-3.3,5-4.9L614.3,176.4z"/>
		<path class="st4" d="M630.1,162.9l-3.3-4.2c-3.7,3-7.4,6-11,9l3.5,4C622.9,168.8,626.5,165.9,630.1,162.9z"/>
		<path class="st4" d="M646.9,150.7l-3-4.4l-3,2c-1,0.7-1.9,1.4-2.9,2.1l-5.7,4.2l3.2,4.3l5.6-4.2c0.9-0.7,1.9-1.4,2.8-2.1
			L646.9,150.7z"/>
		<path class="st4" d="M664.6,139.6l-2.7-4.6c-4.1,2.4-8.2,4.7-12.1,7.4l2.9,4.5C656.5,144.2,660.6,142,664.6,139.6z"/>
		<polygon class="st4" points="682.9,129.7 680.6,124.9 667.9,131.5 670.5,136.2 		"/>
		<path class="st4" d="M702,121.4l-2-5c-2.2,0.9-4.4,1.7-6.6,2.6l-6.5,2.9l2.2,4.8l6.4-2.9C697.6,123.1,699.8,122.3,702,121.4z"/>
		<path class="st4" d="M721.6,114.5l-1.6-5.1l-6.8,2.2c-2.2,0.8-4.5,1.4-6.7,2.3l1.8,5c2.1-0.9,4.4-1.5,6.6-2.3L721.6,114.5z"/>
	</g>
	<g>
		<path class="st4" d="M741.7,109.1l-1.2-5.2c-2.3,0.4-4.6,1.1-6.9,1.7l-6.9,1.8l1.4,5.1l6.7-1.8
			C737.1,110.2,739.4,109.5,741.7,109.1z"/>
		<path class="st4" d="M762.1,105.4l-0.8-5.3l-7,1c-1.2,0.1-2.3,0.4-3.5,0.7l-3.5,0.7l1,5.2l3.4-0.7c1.1-0.2,2.3-0.5,3.4-0.6
			L762.1,105.4z"/>
		<polygon class="st4" points="782.8,103.1 782.4,97.8 768.2,99.1 768.9,104.4 		"/>
		<polygon class="st4" points="803.6,102.6 803.6,97.3 800.1,97.2 796.5,97.3 789.4,97.5 789.6,102.8 796.6,102.6 800.1,102.5 		"/>
		<polygon class="st4" points="824.3,103.8 824.8,98.5 817.7,97.8 815.9,97.7 814.2,97.6 810.6,97.5 810.4,102.8 813.9,102.9 
			815.6,103 817.4,103.2 		"/>
		<polygon class="st4" points="845,106.4 845.9,101.1 831.8,99.1 831.1,104.4 		"/>
		<path class="st4" d="M865.3,110.8l1.3-5.2c-4.6-1.3-9.2-2.2-13.9-3.1l-1,5.2C856.2,108.7,860.8,109.5,865.3,110.8z"/>
	</g>
	<g>
		<polygon class="st4" points="885.2,116.7 886.9,111.7 880.2,109.4 876.8,108.3 873.3,107.4 871.9,112.6 875.3,113.4 878.6,114.5 
					"/>
		<path class="st4" d="M904.7,124.1l2.1-4.9c-1.1-0.5-2.2-0.9-3.3-1.4l-3.3-1.3l-6.6-2.6l-1.8,5l6.5,2.5l3.3,1.3
			C902.5,123.2,903.6,123.6,904.7,124.1z"/>
		<polygon class="st4" points="923.4,133 925.9,128.3 919.6,125 913.1,122.1 910.9,126.9 917.2,129.8 		"/>
		<path class="st4" d="M941.6,143.2l2.8-4.5l-6.1-3.6l-3.1-1.8c-1-0.6-2-1.2-3.1-1.7l-2.6,4.7c1,0.5,2,1.1,3,1.7l3,1.8L941.6,143.2z
			"/>
		<polygon class="st4" points="958.9,154.7 962,150.4 959.1,148.3 956.2,146.3 950.2,142.4 947.3,146.9 953.2,150.7 956.1,152.7 		
			"/>
		<path class="st4" d="M975.4,167.5l3.4-4.1c-3.7-3-7.3-6.1-11.2-8.8l-3.2,4.3C968.2,161.5,971.8,164.5,975.4,167.5z"/>
		<polygon class="st4" points="991,181.2 994.7,177.3 984.1,167.8 980.7,171.8 		"/>
	</g>
	<g>
		<path class="st4" d="M1005.7,196l3.9-3.6c-3.1-3.6-6.6-6.8-9.9-10.2l-3.7,3.8C999.2,189.3,1002.6,192.5,1005.7,196z"/>
		<path class="st4" d="M1019.3,211.8l4.1-3.4l-4.5-5.5c-0.8-0.9-1.5-1.8-2.3-2.7l-2.4-2.6l-4,3.5l2.4,2.6c0.8,0.9,1.5,1.8,2.3,2.7
			L1019.3,211.8z"/>
		<polygon class="st4" points="1032.1,228.2 1036.4,225.1 1027.9,213.8 1023.7,217.1 		"/>
		<path class="st4" d="M1043.7,245.5l4.5-2.9l-1.9-3c-0.6-1-1.3-2-2-3l-4-5.9l-4.4,3l3.9,5.8c0.6,1,1.3,1.9,1.9,2.9L1043.7,245.5z"
			/>
		<path class="st4" d="M1054.3,263.5l4.7-2.6c-2.3-4.1-4.5-8.3-7.1-12.3l-4.6,2.8C1049.8,255.3,1052.1,259.4,1054.3,263.5z"/>
		<polygon class="st4" points="1063.9,282 1068.7,279.7 1062.4,267 1057.7,269.5 		"/>
		<polygon class="st4" points="1072.4,301 1077.4,299 1076.7,297.4 1076,295.7 1074.6,292.5 1071.7,286 1066.8,288.2 1069.7,294.6 
			1071.1,297.8 1071.8,299.4 		"/>
	</g>
	<g>
		<path class="st4" d="M1079.8,320.6l5-1.8c-0.8-2.2-1.5-4.5-2.3-6.7l-2.6-6.6l-5,1.9l2.6,6.5C1078.3,316.1,1079,318.4,1079.8,320.6
			z"/>
		<polygon class="st4" points="1086.1,340.4 1091.3,339 1089.3,332.1 1088.2,328.7 1087.1,325.4 1082,327 1083.2,330.4 
			1084.2,333.7 		"/>
		<polygon class="st4" points="1091.4,360.6 1096.6,359.4 1093.2,345.6 1088.1,347 		"/>
		<path class="st4" d="M1095.6,381.1l5.3-0.9c-0.8-4.7-1.8-9.3-2.7-13.9l-5.2,1.1C1093.8,371.9,1094.7,376.5,1095.6,381.1z"/>
		<path class="st4" d="M1098.6,401.7l5.3-0.6c-0.4-4.7-1.3-9.4-2-14.1l-5.3,0.8C1097.3,392.5,1098.2,397.1,1098.6,401.7z"/>
		<path class="st4" d="M1100.5,422.5l5.3-0.4l-0.5-7.1c-0.2-2.4-0.5-4.7-0.7-7.1l-5.3,0.5c0.2,2.3,0.6,4.6,0.7,7L1100.5,422.5z"/>
		<path class="st4" d="M1101.4,443.3l5.3-0.1l-0.2-7.1l-0.1-3.5c0-1.2-0.1-2.4-0.2-3.5l-5.3,0.3c0.1,1.2,0.2,2.3,0.2,3.5l0.1,3.5
			L1101.4,443.3z"/>
	</g>
</g>
</svg>
