<svg height="900" viewBox="0 0 1600 900" width="1600" xmlns="http://www.w3.org/2000/svg"><g fill="none" fill-rule="evenodd" opacity=".499038"><path d="m0 0h1600v900h-1600zm395 192c-11.045695 0-20 8.954305-20 20v480c0 11.045695 8.954305 20 20 20h809c11.04569 0 20-8.954305 20-20v-480c0-11.045695-8.95431-20-20-20z" fill="#000"/><path d="m395 192h809c11.04569 0 20 8.954305 20 20v480c0 11.045695-8.95431 20-20 20h-809c-11.045695 0-20-8.954305-20-20v-480c0-11.045695 8.954305-20 20-20z" stroke="#fff" stroke-dasharray="15 10 15 10" stroke-width="4"/></g></svg>