<?xml version="1.0" encoding="utf-8"?>
<!-- Generator: Adobe Illustrator 25.4.1, SVG Export Plug-In . SVG Version: 6.00 Build 0)  -->
<svg version="1.1" id="Layer_1" xmlns="http://www.w3.org/2000/svg" xmlns:xlink="http://www.w3.org/1999/xlink" x="0px" y="0px"
	 viewBox="0 0 1600 900" style="enable-background:new 0 0 1600 900;" xml:space="preserve">
<style type="text/css">
	.st0{opacity:0.6;}
	.st1{display:none;}
	.st2{display:inline;opacity:0.4985;}
	.st3{fill:none;stroke:#FFFFFF;stroke-width:4;stroke-dasharray:15,10;}
	.st4{fill:#CCCCCC;}
</style>
<path class="st0" d="M0,0.4V900h1600V0.4H0z M800,840.4c-168.1,0-304.3-156.9-304.3-350.4S631.9,139.6,800,139.6
	s304.3,156.9,304.3,350.4S968.1,840.4,800,840.4z"/>
<g id="Layer_1_00000118373209761207041020000000377904753077727149_" class="st1">
	<g class="st2">
		<path d="M0,0h1600v900H0V0z M799.5,795c165.4,0,299.5-154.5,299.5-345S964.9,105,799.5,105S500,259.5,500,450S634.1,795,799.5,795
			z"/>
		<path class="st3" d="M799.5,795c165.4,0,299.5-154.5,299.5-345S964.9,105,799.5,105S500,259.5,500,450S634.1,795,799.5,795z"/>
	</g>
	<g class="st2">
		<path d="M0-940.3h1600v900H0V-940.3z M799.5-145.3c165.4,0,299.5-154.5,299.5-345s-134.1-345-299.5-345S500-680.8,500-490.3
			S634.1-145.3,799.5-145.3z"/>
		<path class="st3" d="M799.5-145.3c165.4,0,299.5-154.5,299.5-345s-134.1-345-299.5-345S500-680.8,500-490.3
			S634.1-145.3,799.5-145.3z"/>
	</g>
</g>
<g>
	<g>
		<polygon class="st4" points="1101.3,504 1106.6,504.2 1106.9,490 1101.6,490 		"/>
		<polygon class="st4" points="1100.1,524.8 1105.4,525.3 1106.3,511.1 1101,510.9 		"/>
		<path class="st4" d="M1097.7,545.6l5.3,0.7c0.4-2.3,0.6-4.7,0.9-7l0.8-7.1l-5.3-0.5l-0.8,7C1098.3,541,1098.1,543.3,1097.7,545.6z
			"/>
		<path class="st4" d="M1094.2,566.2l5.2,1c0.4-2.3,1-4.6,1.4-7l1.1-7l-5.3-0.8l-1.1,6.9C1095.2,561.6,1094.7,563.9,1094.2,566.2z"
			/>
		<path class="st4" d="M1089.7,586.5l5.2,1.3l1.7-6.9c0.3-1.2,0.6-2.3,0.8-3.5l0.7-3.5l-5.2-1.1l-0.7,3.4c-0.2,1.1-0.5,2.3-0.8,3.4
			L1089.7,586.5z"/>
		<polygon class="st4" points="1084.1,606.6 1089.2,608.2 1093.2,594.6 1088.1,593.2 		"/>
		<path class="st4" d="M1077.4,626.4l5,1.9c1.6-4.4,3.1-8.9,4.6-13.4l-5.1-1.7C1080.5,617.6,1079,622,1077.4,626.4z"/>
	</g>
	<g>
		<polygon class="st4" points="1069.6,645.7 1074.5,647.8 1075.9,644.6 1076.7,643 1077.3,641.3 1079.9,634.7 1074.9,632.8 
			1072.4,639.3 1071.7,640.9 1071,642.5 		"/>
		<path class="st4" d="M1060.7,664.6l4.8,2.4c2.1-4.3,4.3-8.4,6.2-12.8l-4.8-2.2C1065,656.3,1062.8,660.4,1060.7,664.6z"/>
		<polygon class="st4" points="1050.9,683 1055.5,685.6 1062.4,673.2 1057.7,670.7 		"/>
		<path class="st4" d="M1039.8,700.7l4.4,2.9c0.7-1,1.4-1.9,2-2.9l1.9-3l3.7-6l-4.6-2.8l-3.7,6l-1.8,3
			C1041.2,698.7,1040.5,699.7,1039.8,700.7z"/>
		<path class="st4" d="M1027.8,717.7l4.3,3.2l4.3-5.7c1.4-1.9,2.7-3.9,4-5.8l-4.4-3c-1.3,1.9-2.6,3.9-4,5.8L1027.8,717.7z"/>
		<path class="st4" d="M1014.8,734l4.1,3.5c3-3.7,6.1-7.3,9-11l-4.2-3.3C1020.8,726.8,1017.7,730.3,1014.8,734z"/>
		<path class="st4" d="M1000.8,749.3l3.8,3.7c1.7-1.6,3.3-3.4,4.9-5.2l4.8-5.3l-4-3.5l-4.7,5.2C1004,746,1002.4,747.7,1000.8,749.3z
			"/>
	</g>
	<g>
		<path class="st4" d="M985.7,763.8l3.6,4l5.3-4.8c1.7-1.6,3.4-3.3,5.1-5l-3.7-3.8c-1.7,1.6-3.3,3.3-5,4.9L985.7,763.8z"/>
		<path class="st4" d="M969.9,777.3l3.3,4.2c3.7-3,7.4-6,11-9l-3.5-4C977.1,771.4,973.5,774.3,969.9,777.3z"/>
		<path class="st4" d="M953.1,789.5l3,4.4l3-2c1-0.7,1.9-1.4,2.9-2.1l5.7-4.2l-3.2-4.3l-5.6,4.2c-0.9,0.7-1.9,1.4-2.8,2.1
			L953.1,789.5z"/>
		<path class="st4" d="M935.4,800.6l2.7,4.6c4.1-2.4,8.2-4.7,12.1-7.4l-2.9-4.5C943.5,796,939.4,798.2,935.4,800.6z"/>
		<polygon class="st4" points="917.1,810.5 919.4,815.3 932.1,808.7 929.5,804 		"/>
		<path class="st4" d="M898,818.8l2,5c2.2-0.9,4.4-1.7,6.6-2.6l6.5-2.9l-2.2-4.8l-6.4,2.9C902.4,817.1,900.2,817.9,898,818.8z"/>
		<path class="st4" d="M878.4,825.7l1.6,5.1l6.8-2.2c2.2-0.8,4.5-1.4,6.7-2.3l-1.8-5c-2.1,0.9-4.4,1.5-6.6,2.3L878.4,825.7z"/>
	</g>
	<g>
		<path class="st4" d="M858.3,831.1l1.2,5.2c2.3-0.4,4.6-1.1,6.9-1.7l6.9-1.8l-1.4-5.1l-6.7,1.8C862.9,830,860.6,830.7,858.3,831.1z
			"/>
		<path class="st4" d="M837.9,834.8l0.8,5.3l7-1c1.2-0.1,2.3-0.4,3.5-0.7l3.5-0.7l-1-5.2l-3.4,0.7c-1.1,0.2-2.3,0.5-3.4,0.6
			L837.9,834.8z"/>
		<polygon class="st4" points="817.2,837.1 817.6,842.4 831.8,841.1 831.1,835.8 		"/>
		<polygon class="st4" points="796.4,837.6 796.4,842.9 799.9,843 803.5,842.9 810.6,842.7 810.4,837.4 803.4,837.6 799.9,837.7 		
			"/>
		<polygon class="st4" points="775.7,836.4 775.2,841.7 782.3,842.4 784.1,842.5 785.8,842.6 789.4,842.7 789.6,837.4 786.1,837.3 
			784.4,837.2 782.6,837 		"/>
		<polygon class="st4" points="755,833.8 754.1,839.1 768.2,841.1 768.9,835.8 		"/>
		<path class="st4" d="M734.7,829.4l-1.3,5.2c4.6,1.3,9.2,2.2,13.9,3.1l1-5.2C743.8,831.5,739.2,830.7,734.7,829.4z"/>
	</g>
	<g>
		<polygon class="st4" points="714.8,823.5 713.1,828.5 719.8,830.8 723.2,831.9 726.7,832.8 728.1,827.6 724.7,826.8 721.4,825.7 
					"/>
		<path class="st4" d="M695.3,816.1l-2.1,4.9c1.1,0.5,2.2,0.9,3.3,1.4l3.3,1.3l6.6,2.6l1.8-5l-6.5-2.5l-3.3-1.3
			C697.5,817,696.4,816.6,695.3,816.1z"/>
		<polygon class="st4" points="676.6,807.2 674.1,811.9 680.4,815.2 686.9,818.1 689.1,813.3 682.8,810.4 		"/>
		<path class="st4" d="M658.4,797l-2.8,4.5l6.1,3.6l3.1,1.8c1,0.6,2,1.2,3.1,1.7l2.6-4.7c-1-0.5-2-1.1-3-1.7l-3-1.8L658.4,797z"/>
		<polygon class="st4" points="641.1,785.5 638,789.8 640.9,791.9 643.8,793.9 649.8,797.8 652.7,793.3 646.8,789.5 643.9,787.5 		
			"/>
		<path class="st4" d="M624.6,772.7l-3.4,4.1c3.7,3,7.3,6.1,11.2,8.8l3.2-4.3C631.8,778.7,628.2,775.7,624.6,772.7z"/>
		<polygon class="st4" points="609,759 605.3,762.9 615.9,772.4 619.3,768.4 		"/>
	</g>
	<g>
		<path class="st4" d="M594.3,744.2l-3.9,3.6c3.1,3.6,6.6,6.8,9.9,10.2l3.7-3.8C600.8,750.9,597.4,747.7,594.3,744.2z"/>
		<path class="st4" d="M580.7,728.4l-4.1,3.4l4.5,5.5c0.8,0.9,1.5,1.8,2.3,2.7l2.4,2.6l4-3.5l-2.4-2.6c-0.8-0.9-1.5-1.8-2.3-2.7
			L580.7,728.4z"/>
		<polygon class="st4" points="567.9,712 563.6,715.1 572.1,726.4 576.3,723.1 		"/>
		<path class="st4" d="M556.3,694.7l-4.5,2.9l1.9,3c0.6,1,1.3,2,2,3l4,5.9l4.4-3l-3.9-5.8c-0.6-1-1.3-1.9-1.9-2.9L556.3,694.7z"/>
		<path class="st4" d="M545.7,676.7l-4.7,2.6c2.3,4.1,4.5,8.3,7.1,12.3l4.6-2.8C550.2,684.9,547.9,680.8,545.7,676.7z"/>
		<polygon class="st4" points="536.1,658.2 531.3,660.5 537.6,673.2 542.3,670.7 		"/>
		<polygon class="st4" points="527.6,639.2 522.6,641.2 523.3,642.8 524,644.5 525.4,647.7 528.3,654.2 533.2,652 530.3,645.6 
			528.9,642.4 528.2,640.8 		"/>
	</g>
	<g>
		<path class="st4" d="M520.2,619.6l-5,1.8c0.8,2.2,1.5,4.5,2.3,6.7l2.6,6.6l5-1.9l-2.6-6.5C521.7,624.1,521,621.8,520.2,619.6z"/>
		<polygon class="st4" points="513.9,599.8 508.7,601.2 510.7,608.1 511.8,611.5 512.9,614.8 518,613.2 516.8,609.8 515.8,606.5 		
			"/>
		<polygon class="st4" points="508.6,579.6 503.4,580.8 506.8,594.6 511.9,593.2 		"/>
		<path class="st4" d="M504.4,559.1l-5.3,0.9c0.8,4.7,1.8,9.3,2.7,13.9l5.2-1.1C506.2,568.3,505.3,563.7,504.4,559.1z"/>
		<path class="st4" d="M501.4,538.5l-5.3,0.6c0.4,4.7,1.3,9.4,2,14.1l5.3-0.8C502.7,547.7,501.8,543.1,501.4,538.5z"/>
		<path class="st4" d="M499.5,517.7l-5.3,0.4l0.5,7.1c0.2,2.4,0.5,4.7,0.7,7.1l5.3-0.5c-0.2-2.3-0.6-4.6-0.7-7L499.5,517.7z"/>
		<path class="st4" d="M498.6,496.9l-5.3,0.1l0.2,7.1l0.1,3.5c0,1.2,0.1,2.4,0.2,3.5l5.3-0.3c-0.1-1.2-0.2-2.3-0.2-3.5l-0.1-3.5
			L498.6,496.9z"/>
	</g>
	<g>
		<polygon class="st4" points="498.7,476 493.4,475.8 493.1,490 498.4,490 		"/>
		<polygon class="st4" points="499.9,455.2 494.6,454.7 493.7,468.9 499,469.1 		"/>
		<path class="st4" d="M502.3,434.4l-5.3-0.7c-0.4,2.3-0.6,4.7-0.9,7l-0.8,7.1l5.3,0.5l0.8-7C501.7,439,501.9,436.7,502.3,434.4z"/>
		<path class="st4" d="M505.8,413.8l-5.2-1c-0.4,2.3-1,4.6-1.4,7l-1.1,7l5.3,0.8l1.1-6.9C504.8,418.4,505.3,416.1,505.8,413.8z"/>
		<path class="st4" d="M510.3,393.5l-5.2-1.3l-1.7,6.9c-0.3,1.2-0.6,2.3-0.8,3.5l-0.7,3.5l5.2,1.1l0.7-3.4c0.2-1.1,0.5-2.3,0.8-3.4
			L510.3,393.5z"/>
		<polygon class="st4" points="515.9,373.4 510.8,371.8 506.8,385.4 511.9,386.8 		"/>
		<path class="st4" d="M522.6,353.6l-5-1.9c-1.6,4.4-3.1,8.9-4.6,13.4l5.1,1.7C519.5,362.4,521,358,522.6,353.6z"/>
	</g>
	<g>
		<polygon class="st4" points="530.4,334.3 525.5,332.2 524.1,335.4 523.3,337 522.7,338.7 520.1,345.3 525.1,347.2 527.6,340.7 
			528.3,339.1 529,337.5 		"/>
		<path class="st4" d="M539.3,315.4l-4.8-2.4c-2.1,4.3-4.3,8.4-6.2,12.8l4.8,2.2C535,323.7,537.2,319.6,539.3,315.4z"/>
		<polygon class="st4" points="549.1,297 544.5,294.4 537.6,306.8 542.3,309.3 		"/>
		<path class="st4" d="M560.2,279.3l-4.4-2.9c-0.7,1-1.4,1.9-2,2.9l-1.9,3l-3.7,6l4.6,2.8l3.7-6l1.8-3
			C558.8,281.3,559.5,280.3,560.2,279.3z"/>
		<path class="st4" d="M572.2,262.3l-4.3-3.2l-4.3,5.7c-1.4,1.9-2.7,3.9-4,5.8l4.4,3c1.3-1.9,2.6-3.9,4-5.8L572.2,262.3z"/>
		<path class="st4" d="M585.2,246l-4.1-3.5c-3,3.7-6.1,7.3-9,11l4.2,3.3C579.2,253.2,582.3,249.7,585.2,246z"/>
		<path class="st4" d="M599.2,230.7l-3.8-3.7c-1.7,1.6-3.3,3.4-4.9,5.2l-4.8,5.3l4,3.5l4.7-5.2C596,234,597.6,232.3,599.2,230.7z"/>
	</g>
	<g>
		<path class="st4" d="M614.3,216.2l-3.6-4l-5.3,4.8c-1.7,1.6-3.4,3.3-5.1,5l3.7,3.8c1.7-1.6,3.3-3.3,5-4.9L614.3,216.2z"/>
		<path class="st4" d="M630.1,202.7l-3.3-4.2c-3.7,3-7.4,6-11,9l3.5,4C622.9,208.6,626.5,205.7,630.1,202.7z"/>
		<path class="st4" d="M646.9,190.5l-3-4.4l-3,2c-1,0.7-1.9,1.4-2.9,2.1l-5.7,4.2l3.2,4.3l5.6-4.2c0.9-0.7,1.9-1.4,2.8-2.1
			L646.9,190.5z"/>
		<path class="st4" d="M664.6,179.4l-2.7-4.6c-4.1,2.4-8.2,4.7-12.1,7.4l2.9,4.5C656.5,184,660.6,181.8,664.6,179.4z"/>
		<polygon class="st4" points="682.9,169.5 680.6,164.7 667.9,171.3 670.5,176 		"/>
		<path class="st4" d="M702,161.2l-2-5c-2.2,0.9-4.4,1.7-6.6,2.6l-6.5,2.9l2.2,4.8l6.4-2.9C697.6,162.9,699.8,162.1,702,161.2z"/>
		<path class="st4" d="M721.6,154.3l-1.6-5.1l-6.8,2.2c-2.2,0.8-4.5,1.4-6.7,2.3l1.8,5c2.1-0.9,4.4-1.5,6.6-2.3L721.6,154.3z"/>
	</g>
	<g>
		<path class="st4" d="M741.7,148.9l-1.2-5.2c-2.3,0.4-4.6,1.1-6.9,1.7l-6.9,1.8l1.4,5.1l6.7-1.8C737.1,150,739.4,149.3,741.7,148.9
			z"/>
		<path class="st4" d="M762.1,145.2l-0.8-5.3l-7,1c-1.2,0.1-2.3,0.4-3.5,0.7l-3.5,0.7l1,5.2l3.4-0.7c1.1-0.2,2.3-0.5,3.4-0.6
			L762.1,145.2z"/>
		<polygon class="st4" points="782.8,142.9 782.4,137.6 768.2,138.9 768.9,144.2 		"/>
		<polygon class="st4" points="803.6,142.4 803.6,137.1 800.1,137 796.5,137.1 789.4,137.3 789.6,142.6 796.6,142.4 800.1,142.3 		
			"/>
		<polygon class="st4" points="824.3,143.6 824.8,138.3 817.7,137.6 815.9,137.5 814.2,137.4 810.6,137.3 810.4,142.6 813.9,142.7 
			815.6,142.8 817.4,143 		"/>
		<polygon class="st4" points="845,146.2 845.9,140.9 831.8,138.9 831.1,144.2 		"/>
		<path class="st4" d="M865.3,150.6l1.3-5.2c-4.6-1.3-9.2-2.2-13.9-3.1l-1,5.2C856.2,148.5,860.8,149.3,865.3,150.6z"/>
	</g>
	<g>
		<polygon class="st4" points="885.2,156.5 886.9,151.5 880.2,149.2 876.8,148.1 873.3,147.2 871.9,152.4 875.3,153.2 878.6,154.3 
					"/>
		<path class="st4" d="M904.7,163.9l2.1-4.9c-1.1-0.5-2.2-0.9-3.3-1.4l-3.3-1.3l-6.6-2.6l-1.8,5l6.5,2.5l3.3,1.3
			C902.5,163,903.6,163.4,904.7,163.9z"/>
		<polygon class="st4" points="923.4,172.8 925.9,168.1 919.6,164.8 913.1,161.9 910.9,166.7 917.2,169.6 		"/>
		<path class="st4" d="M941.6,183l2.8-4.5l-6.1-3.6l-3.1-1.8c-1-0.6-2-1.2-3.1-1.7l-2.6,4.7c1,0.5,2,1.1,3,1.7l3,1.8L941.6,183z"/>
		<polygon class="st4" points="958.9,194.5 962,190.2 959.1,188.1 956.2,186.1 950.2,182.2 947.3,186.7 953.2,190.5 956.1,192.5 		
			"/>
		<path class="st4" d="M975.4,207.3l3.4-4.1c-3.7-3-7.3-6.1-11.2-8.8l-3.2,4.3C968.2,201.3,971.8,204.3,975.4,207.3z"/>
		<polygon class="st4" points="991,221 994.7,217.1 984.1,207.6 980.7,211.6 		"/>
	</g>
	<g>
		<path class="st4" d="M1005.7,235.8l3.9-3.6c-3.1-3.6-6.6-6.8-9.9-10.2l-3.7,3.8C999.2,229.1,1002.6,232.3,1005.7,235.8z"/>
		<path class="st4" d="M1019.3,251.6l4.1-3.4l-4.5-5.5c-0.8-0.9-1.5-1.8-2.3-2.7l-2.4-2.6l-4,3.5l2.4,2.6c0.8,0.9,1.5,1.8,2.3,2.7
			L1019.3,251.6z"/>
		<polygon class="st4" points="1032.1,268 1036.4,264.9 1027.9,253.6 1023.7,256.9 		"/>
		<path class="st4" d="M1043.7,285.3l4.5-2.9l-1.9-3c-0.6-1-1.3-2-2-3l-4-5.9l-4.4,3l3.9,5.8c0.6,1,1.3,1.9,1.9,2.9L1043.7,285.3z"
			/>
		<path class="st4" d="M1054.3,303.3l4.7-2.6c-2.3-4.1-4.5-8.3-7.1-12.3l-4.6,2.8C1049.8,295.1,1052.1,299.2,1054.3,303.3z"/>
		<polygon class="st4" points="1063.9,321.8 1068.7,319.5 1062.4,306.8 1057.7,309.3 		"/>
		<polygon class="st4" points="1072.4,340.8 1077.4,338.8 1076.7,337.2 1076,335.5 1074.6,332.3 1071.7,325.8 1066.8,328 
			1069.7,334.4 1071.1,337.6 1071.8,339.2 		"/>
	</g>
	<g>
		<path class="st4" d="M1079.8,360.4l5-1.8c-0.8-2.2-1.5-4.5-2.3-6.7l-2.6-6.6l-5,1.9l2.6,6.5C1078.3,355.9,1079,358.2,1079.8,360.4
			z"/>
		<polygon class="st4" points="1086.1,380.2 1091.3,378.8 1089.3,371.9 1088.2,368.5 1087.1,365.2 1082,366.8 1083.2,370.2 
			1084.2,373.5 		"/>
		<polygon class="st4" points="1091.4,400.4 1096.6,399.2 1093.2,385.4 1088.1,386.8 		"/>
		<path class="st4" d="M1095.6,420.9l5.3-0.9c-0.8-4.7-1.8-9.3-2.7-13.9l-5.2,1.1C1093.8,411.7,1094.7,416.3,1095.6,420.9z"/>
		<path class="st4" d="M1098.6,441.5l5.3-0.6c-0.4-4.7-1.3-9.4-2-14.1l-5.3,0.8C1097.3,432.3,1098.2,436.9,1098.6,441.5z"/>
		<path class="st4" d="M1100.5,462.3l5.3-0.4l-0.5-7.1c-0.2-2.4-0.5-4.7-0.7-7.1l-5.3,0.5c0.2,2.3,0.6,4.6,0.7,7L1100.5,462.3z"/>
		<path class="st4" d="M1101.4,483.1l5.3-0.1l-0.2-7.1l-0.1-3.5c0-1.2-0.1-2.4-0.2-3.5l-5.3,0.3c0.1,1.2,0.2,2.3,0.2,3.5l0.1,3.5
			L1101.4,483.1z"/>
	</g>
</g>
</svg>
