<svg xmlns="http://www.w3.org/2000/svg" width="200" height="200" viewBox="0 0 200 200">
  <g fill="none" fill-rule="evenodd">
    <path fill="#007F3B" d="M100,0 L100,18.0000112 C99.9850016,18 99.9700022,18 99.9550018,18 C54.6925041,18 18,54.6925041 18,99.9550018 C18,145.2175 54.6925041,181.910004 99.9550018,181.910004 C145.202499,181.910004 181.885682,145.241816 181.909992,100 L200,100 C200,155.228475 155.228475,200 100,200 C44.771525,200 0,155.228475 0,100 C0,44.771525 44.771525,0 100,0 Z"/>
    <path fill="#FFFFFF" d="M0,100 L18.0000112,100 L0,100 Z M100,181.909992 L100,200 L100,181.909992 Z M200,100 L181.909992,100 C181.91,99.9850016 181.910004,99.9700022 181.910004,99.9550018 C181.910004,54.7075045 145.241816,18.0243213 100,18.0000121 L100,0 C155.228475,0 200,44.771525 200,100 Z"/>
  </g>
</svg>
