<?xml version="1.0" standalone="no"?><!DOCTYPE svg PUBLIC "-//W3C//DTD SVG 1.1//EN" "http://www.w3.org/Graphics/SVG/1.1/DTD/svg11.dtd"><svg class="nhsuk-logo nhsuk-logo--white" role="presentation" focusable="false" viewBox="0 0 40 16" version="1.1" xmlns="http://www.w3.org/2000/svg" xmlns:xlink="http://www.w3.org/1999/xlink" style="border-bottom-color:rgb(0, 94, 184);border-left-color:rgb(0, 94, 184);border-right-color:rgb(0, 94, 184);border-top-color:rgb(0, 94, 184);caret-color:rgb(0, 94, 184);color:rgb(0, 94, 184);display:block;height:40px;min-height:auto;min-width:auto;outline-color:rgb(0, 94, 184);-webkit-text-decoration-color:rgb(0, 94, 184);transform-origin:50px 20px;width:100px;column-rule-color:rgb(0, 94, 184);perspective-origin:50px 20px;-webkit-text-emphasis-color:rgb(0, 94, 184);-webkit-text-fill-color:rgb(0, 94, 184);-webkit-text-stroke-color:rgb(0, 94, 184);">
          <path fill="#fff" d="M0 0h40v16H0z" style="border-bottom-color:rgb(0, 94, 184);border-left-color:rgb(0, 94, 184);border-right-color:rgb(0, 94, 184);border-top-color:rgb(0, 94, 184);caret-color:rgb(0, 94, 184);color:rgb(0, 94, 184);height:auto;outline-color:rgb(0, 94, 184);overflow-x:visible;overflow-y:visible;-webkit-text-decoration-color:rgb(0, 94, 184);transform-box:view-box;transform-origin:0px 0px;width:auto;column-rule-color:rgb(0, 94, 184);perspective-origin:0px 0px;-webkit-text-emphasis-color:rgb(0, 94, 184);-webkit-text-fill-color:rgb(0, 94, 184);-webkit-text-stroke-color:rgb(0, 94, 184);fill:rgb(255, 255, 255);"/>
          <path fill="#005eb8" d="M3.9 1.5h4.4l2.6 9h.1l1.8-9h3.3l-2.8 13H9l-2.7-9h-.1l-1.8 9H1.1M17.3 1.5h3.6l-1 4.9h4L25 1.5h3.5l-2.7 13h-3.5l1.1-5.6h-4.1l-1.2 5.6h-3.4M37.7 4.4c-.7-.3-1.6-.6-2.9-.6-1.4 0-2.5.2-2.5 1.3 0 1.8 5.1 1.2 5.1 5.1 0 3.6-3.3 4.5-6.4 4.5-1.3 0-2.9-.3-4-.7l.8-2.7c.7.4 2.1.7 3.2.7s2.8-.2 2.8-1.5c0-2.1-5.1-1.3-5.1-5 0-3.4 2.9-4.4 5.8-4.4 1.6 0 3.1.2 4 .6" style="border-bottom-color:rgb(0, 94, 184);border-left-color:rgb(0, 94, 184);border-right-color:rgb(0, 94, 184);border-top-color:rgb(0, 94, 184);caret-color:rgb(0, 94, 184);color:rgb(0, 94, 184);height:auto;outline-color:rgb(0, 94, 184);overflow-x:visible;overflow-y:visible;-webkit-text-decoration-color:rgb(0, 94, 184);transform-box:view-box;transform-origin:0px 0px;width:auto;column-rule-color:rgb(0, 94, 184);perspective-origin:0px 0px;-webkit-text-emphasis-color:rgb(0, 94, 184);-webkit-text-fill-color:rgb(0, 94, 184);-webkit-text-stroke-color:rgb(0, 94, 184);fill:rgb(0, 94, 184);"/>
          <image src="https://assets.nhs.uk/images/nhs-logo.png" xlink:href="" style="border-bottom-color:rgb(0, 94, 184);border-left-color:rgb(0, 94, 184);border-right-color:rgb(0, 94, 184);border-top-color:rgb(0, 94, 184);caret-color:rgb(0, 94, 184);color:rgb(0, 94, 184);height:auto;outline-color:rgb(0, 94, 184);-webkit-text-decoration-color:rgb(0, 94, 184);transform-box:view-box;transform-origin:0px 0px;width:auto;column-rule-color:rgb(0, 94, 184);perspective-origin:0px 0px;-webkit-text-emphasis-color:rgb(0, 94, 184);-webkit-text-fill-color:rgb(0, 94, 184);-webkit-text-stroke-color:rgb(0, 94, 184);"/>
        </svg>